<?xml version="1.0" standalone="no"?><!DOCTYPE svg PUBLIC "-//W3C//DTD SVG 1.1//EN" "http://www.w3.org/Graphics/SVG/1.1/DTD/svg11.dtd"><svg t="1714471980299" class="icon" viewBox="0 0 1210 1024" version="1.1" xmlns="http://www.w3.org/2000/svg" p-id="9870" xmlns:xlink="http://www.w3.org/1999/xlink" width="18.90625" height="16"><path d="M1024.219226 148.817355s200.934079-26.158201 185.062288 209.12597c0 0-31.743582 397.446397-253.809018 549.08949 0 0-200.887534 214.385538-465.262231 57.482878 0 0-190.321855-141.170503-327.76877-183.014315 0 0-253.809018-78.428057-126.927781-282.341005 0 0-137.446915-240.543738 163.93093-287.647117 0 0 100.443767-334.657407 444.084328-162.069137 0 0 237.937227-125.484891 380.736799 99.373236z m105.749879 230.071149c21.131358-214.385538-142.753027-141.217048-142.753027-146.43007-126.881237-251.016328-343.687106-99.373236-343.687106-99.373236-327.76877-188.227337-385.949822 146.43007-385.949822 146.43007-301.377845 15.685611-126.881237 219.645105-126.881236 219.645105-153.318706 167.328703 79.312409 214.385538 68.74673 214.385538 121.575125 31.371223 327.76877 183.014315 327.76877 183.014314 216.805869 135.910936 375.384143-41.843812 375.384143-41.843812 195.627967-135.910936 227.371548-475.82791 227.371548-475.827909z m-137.865819-54.922913c26.670194 230.536597-138.657081 491.79279-138.657081 491.79279 0 5.119933 0 5.119933-5.352657 10.239865a26.530559 26.530559 0 0 1-37.328963 0c-5.306112-5.119933-5.306112-20.47973 0-30.719595 58.6465-97.325263 149.362395-281.735923 133.35097-466.146582-5.352657-10.239865 0-20.47973 5.352657-25.599663a26.530559 26.530559 0 0 1 37.328962 0c5.306112 5.119933 5.306112 15.359798 5.306112 20.47973z m-305.334157-74.844104c152.713623 202.609693 71.585965 567.381612 71.585965 562.308224 0 5.073388-4.794119 5.073388-4.794118 10.146775-9.541692 10.10023-23.830959 15.173618-33.419196 10.100231-9.541692-5.026843-14.289266-20.247006-9.541692-30.393781 19.083385-111.428349 57.296699-354.625144-57.250155-516.740825-9.588237-5.026843-9.588237-20.247006-4.794119-30.393781 9.541692-10.10023 23.877503-15.173618 33.419196-10.100231l4.747574 5.073388z m-46.405207 548.90331c0 5.119933 0 10.19332 5.073388 10.19332 0 15.266708-10.146775 25.460028-25.366938 25.460028-15.173618 0-25.320394-10.19332-25.320394-20.38664C447.807915 415.845107 321.159403 400.5784 321.159403 400.5784c-15.220163 0-25.320394-10.239865-25.320394-25.506573 0-15.266708 10.10023-25.460028 25.320394-25.460028h5.073388c177.335844 40.773281 314.131132 448.412998 314.131131 448.412998z" fill="#84cc16" p-id="9871"></path></svg>